<mxfile host="app.diagrams.net" agent="Mozilla/5.0 (Windows NT 10.0; Win64; x64) AppleWebKit/537.36 (KHTML, like Gecko) Chrome/127.0.0.0 Safari/537.36 OPR/113.0.0.0" version="24.7.16">
  <diagram name="Page-1" id="SXDIz1O8bFwts2_nE0uL">
    <mxGraphModel dx="1361" dy="629" grid="1" gridSize="10" guides="1" tooltips="1" connect="1" arrows="1" fold="1" page="1" pageScale="1" pageWidth="850" pageHeight="1100" math="0" shadow="0">
      <root>
        <mxCell id="0" />
        <mxCell id="1" parent="0" />
        <mxCell id="FkhsFR7Fl35TN2OS2gGM-1" value="&lt;b&gt;Produtor&lt;/b&gt;" style="html=1;dropTarget=0;whiteSpace=wrap;" vertex="1" parent="1">
          <mxGeometry x="115" y="290" width="180" height="90" as="geometry" />
        </mxCell>
        <mxCell id="FkhsFR7Fl35TN2OS2gGM-2" value="" style="shape=module;jettyWidth=8;jettyHeight=4;" vertex="1" parent="FkhsFR7Fl35TN2OS2gGM-1">
          <mxGeometry x="1" width="20" height="20" relative="1" as="geometry">
            <mxPoint x="-27" y="7" as="offset" />
          </mxGeometry>
        </mxCell>
        <mxCell id="FkhsFR7Fl35TN2OS2gGM-3" value="&lt;b&gt;Restaurante&lt;/b&gt;" style="html=1;dropTarget=0;whiteSpace=wrap;" vertex="1" parent="1">
          <mxGeometry x="516" y="535" width="180" height="90" as="geometry" />
        </mxCell>
        <mxCell id="FkhsFR7Fl35TN2OS2gGM-4" value="" style="shape=module;jettyWidth=8;jettyHeight=4;" vertex="1" parent="FkhsFR7Fl35TN2OS2gGM-3">
          <mxGeometry x="1" width="20" height="20" relative="1" as="geometry">
            <mxPoint x="-27" y="7" as="offset" />
          </mxGeometry>
        </mxCell>
        <mxCell id="FkhsFR7Fl35TN2OS2gGM-5" value="&lt;b&gt;Cozinha&lt;/b&gt;" style="html=1;dropTarget=0;whiteSpace=wrap;" vertex="1" parent="1">
          <mxGeometry x="256" y="535" width="180" height="90" as="geometry" />
        </mxCell>
        <mxCell id="FkhsFR7Fl35TN2OS2gGM-6" value="" style="shape=module;jettyWidth=8;jettyHeight=4;" vertex="1" parent="FkhsFR7Fl35TN2OS2gGM-5">
          <mxGeometry x="1" width="20" height="20" relative="1" as="geometry">
            <mxPoint x="-27" y="7" as="offset" />
          </mxGeometry>
        </mxCell>
        <mxCell id="FkhsFR7Fl35TN2OS2gGM-7" value="Server" style="shape=umlFrame;whiteSpace=wrap;html=1;pointerEvents=0;" vertex="1" parent="1">
          <mxGeometry x="226" y="490" width="500" height="180" as="geometry" />
        </mxCell>
        <mxCell id="FkhsFR7Fl35TN2OS2gGM-12" value="" style="endArrow=open;endSize=12;dashed=1;html=1;rounded=0;" edge="1" parent="1" source="FkhsFR7Fl35TN2OS2gGM-5" target="FkhsFR7Fl35TN2OS2gGM-3">
          <mxGeometry width="160" relative="1" as="geometry">
            <mxPoint x="306" y="590" as="sourcePoint" />
            <mxPoint x="466" y="590" as="targetPoint" />
          </mxGeometry>
        </mxCell>
        <mxCell id="FkhsFR7Fl35TN2OS2gGM-28" value="Processa&lt;br&gt;Pedido" style="edgeLabel;html=1;align=center;verticalAlign=middle;resizable=0;points=[];" vertex="1" connectable="0" parent="FkhsFR7Fl35TN2OS2gGM-12">
          <mxGeometry x="-0.1879" y="2" relative="1" as="geometry">
            <mxPoint x="8" y="-18" as="offset" />
          </mxGeometry>
        </mxCell>
        <mxCell id="FkhsFR7Fl35TN2OS2gGM-13" value="&lt;b&gt;RabbitMq&lt;/b&gt;" style="html=1;dropTarget=0;whiteSpace=wrap;" vertex="1" parent="1">
          <mxGeometry x="515" y="290" width="180" height="90" as="geometry" />
        </mxCell>
        <mxCell id="FkhsFR7Fl35TN2OS2gGM-14" value="" style="shape=module;jettyWidth=8;jettyHeight=4;" vertex="1" parent="FkhsFR7Fl35TN2OS2gGM-13">
          <mxGeometry x="1" width="20" height="20" relative="1" as="geometry">
            <mxPoint x="-27" y="7" as="offset" />
          </mxGeometry>
        </mxCell>
        <mxCell id="FkhsFR7Fl35TN2OS2gGM-15" value="Client" style="shape=umlFrame;whiteSpace=wrap;html=1;pointerEvents=0;" vertex="1" parent="1">
          <mxGeometry x="60" y="245" width="290" height="180" as="geometry" />
        </mxCell>
        <mxCell id="FkhsFR7Fl35TN2OS2gGM-16" value="" style="rounded=0;orthogonalLoop=1;jettySize=auto;html=1;endArrow=halfCircle;endFill=0;endSize=6;strokeWidth=1;sketch=0;" edge="1" target="FkhsFR7Fl35TN2OS2gGM-18" parent="1" source="FkhsFR7Fl35TN2OS2gGM-1">
          <mxGeometry relative="1" as="geometry">
            <mxPoint x="425" y="335" as="sourcePoint" />
          </mxGeometry>
        </mxCell>
        <mxCell id="FkhsFR7Fl35TN2OS2gGM-17" value="" style="rounded=0;orthogonalLoop=1;jettySize=auto;html=1;endArrow=oval;endFill=0;sketch=0;sourcePerimeterSpacing=0;targetPerimeterSpacing=0;endSize=10;" edge="1" target="FkhsFR7Fl35TN2OS2gGM-18" parent="1" source="FkhsFR7Fl35TN2OS2gGM-13">
          <mxGeometry relative="1" as="geometry">
            <mxPoint x="385" y="335" as="sourcePoint" />
          </mxGeometry>
        </mxCell>
        <mxCell id="FkhsFR7Fl35TN2OS2gGM-20" value="&lt;strong&gt;AMQP&lt;/strong&gt;" style="edgeLabel;html=1;align=center;verticalAlign=middle;resizable=0;points=[];" vertex="1" connectable="0" parent="FkhsFR7Fl35TN2OS2gGM-17">
          <mxGeometry x="0.3364" y="2" relative="1" as="geometry">
            <mxPoint x="-12" y="-17" as="offset" />
          </mxGeometry>
        </mxCell>
        <mxCell id="FkhsFR7Fl35TN2OS2gGM-18" value="" style="ellipse;whiteSpace=wrap;html=1;align=center;aspect=fixed;fillColor=none;strokeColor=none;resizable=0;perimeter=centerPerimeter;rotatable=0;allowArrows=0;points=[];outlineConnect=1;" vertex="1" parent="1">
          <mxGeometry x="400" y="330" width="10" height="10" as="geometry" />
        </mxCell>
        <mxCell id="FkhsFR7Fl35TN2OS2gGM-19" value="Broker" style="shape=umlFrame;whiteSpace=wrap;html=1;pointerEvents=0;" vertex="1" parent="1">
          <mxGeometry x="460" y="245" width="290" height="180" as="geometry" />
        </mxCell>
        <mxCell id="FkhsFR7Fl35TN2OS2gGM-25" value="" style="rounded=0;orthogonalLoop=1;jettySize=auto;html=1;endArrow=halfCircle;endFill=0;endSize=6;strokeWidth=1;sketch=0;" edge="1" target="FkhsFR7Fl35TN2OS2gGM-27" parent="1" source="FkhsFR7Fl35TN2OS2gGM-13">
          <mxGeometry relative="1" as="geometry">
            <mxPoint x="625" y="455" as="sourcePoint" />
          </mxGeometry>
        </mxCell>
        <mxCell id="FkhsFR7Fl35TN2OS2gGM-26" value="" style="rounded=0;orthogonalLoop=1;jettySize=auto;html=1;endArrow=oval;endFill=0;sketch=0;sourcePerimeterSpacing=0;targetPerimeterSpacing=0;endSize=10;exitX=0.5;exitY=0;exitDx=0;exitDy=0;" edge="1" target="FkhsFR7Fl35TN2OS2gGM-27" parent="1" source="FkhsFR7Fl35TN2OS2gGM-3">
          <mxGeometry relative="1" as="geometry">
            <mxPoint x="585" y="455" as="sourcePoint" />
          </mxGeometry>
        </mxCell>
        <mxCell id="FkhsFR7Fl35TN2OS2gGM-27" value="" style="ellipse;whiteSpace=wrap;html=1;align=center;aspect=fixed;fillColor=none;strokeColor=none;resizable=0;perimeter=centerPerimeter;rotatable=0;allowArrows=0;points=[];outlineConnect=1;" vertex="1" parent="1">
          <mxGeometry x="600" y="450" width="10" height="10" as="geometry" />
        </mxCell>
      </root>
    </mxGraphModel>
  </diagram>
</mxfile>
